<svg xmlns="http://www.w3.org/2000/svg" width="26.422" height="26.422" viewBox="0 0 26.422 26.422">
  <g id="Group_2584" data-name="Group 2584" transform="translate(1016.042 -196.272)">
    <path id="Path_3106" data-name="Path 3106" d="M-1002.831,222.694a13.226,13.226,0,0,1-13.211-13.211,13.226,13.226,0,0,1,13.211-13.211,13.226,13.226,0,0,1,13.211,13.211A13.226,13.226,0,0,1-1002.831,222.694Zm0-22.61a9.41,9.41,0,0,0-9.4,9.4,9.41,9.41,0,0,0,9.4,9.4,9.41,9.41,0,0,0,9.4-9.4A9.41,9.41,0,0,0-1002.831,200.084Z" transform="translate(0)" fill="#03749a"/>
    <g id="Group_2583" data-name="Group 2583" transform="translate(-1014.898 197.416)">
      <g id="Group_2581" data-name="Group 2581" transform="translate(0 0)">
        <circle id="Ellipse_35" data-name="Ellipse 35" cx="11.305" cy="11.305" r="11.305" transform="translate(0.762 0.762)" fill="#fff"/>
        <path id="Path_3107" data-name="Path 3107" d="M-989.377,235.006a12.081,12.081,0,0,1-12.067-12.067,12.081,12.081,0,0,1,12.067-12.068,12.081,12.081,0,0,1,12.068,12.068A12.081,12.081,0,0,1-989.377,235.006Zm0-22.61a10.555,10.555,0,0,0-10.543,10.543,10.555,10.555,0,0,0,10.543,10.543,10.555,10.555,0,0,0,10.543-10.543A10.555,10.555,0,0,0-989.377,212.4Z" transform="translate(1001.444 -210.871)" fill="#5e5e5e"/>
      </g>
      <g id="Group_2582" data-name="Group 2582" transform="translate(3.101 3.794)">
        <path id="Path_3108" data-name="Path 3108" d="M-957.383,261.255c1.385,0,2.507,1.45,2.507,3.239s-1.122,3.237-2.507,3.237-2.509-1.449-2.509-3.237,1.122-3.239,2.509-3.239m0-1.96A4.223,4.223,0,0,0-960.708,261a5.712,5.712,0,0,0-1.146,3.491,5.707,5.707,0,0,0,1.146,3.489,4.224,4.224,0,0,0,3.325,1.71,4.224,4.224,0,0,0,3.324-1.71,5.717,5.717,0,0,0,1.144-3.489A5.722,5.722,0,0,0-954.059,261a4.222,4.222,0,0,0-3.324-1.708" transform="translate(961.854 -259.295)" fill="#5e5e5e"/>
        <path id="Path_3109" data-name="Path 3109" d="M-911.108,294.385a1.262,1.262,0,0,0,0-2.522,1.262,1.262,0,0,0,0,2.522" transform="translate(916.206 -289.312)" fill="#5e5e5e"/>
        <path id="Path_3110" data-name="Path 3110" d="M-839.656,261.255c1.385,0,2.508,1.45,2.508,3.239s-1.124,3.237-2.508,3.237-2.508-1.449-2.508-3.237,1.124-3.239,2.508-3.239m0-1.96A4.222,4.222,0,0,0-842.981,261a5.722,5.722,0,0,0-1.144,3.491,5.717,5.717,0,0,0,1.144,3.489,4.224,4.224,0,0,0,3.325,1.71,4.225,4.225,0,0,0,3.325-1.71,5.706,5.706,0,0,0,1.144-3.489A5.711,5.711,0,0,0-836.332,261a4.223,4.223,0,0,0-3.325-1.708" transform="translate(853.348 -259.295)" fill="#5e5e5e"/>
        <path id="Path_3111" data-name="Path 3111" d="M-793.38,294.385a1.262,1.262,0,0,0,0-2.522,1.262,1.262,0,0,0,0,2.522" transform="translate(807.7 -289.312)" fill="#5e5e5e"/>
      </g>
    </g>
  </g>
</svg>
