<svg xmlns="http://www.w3.org/2000/svg" width="219.577" height="101.084" viewBox="0 0 219.577 101.084">
  <g id="Group_2507" data-name="Group 2507" transform="translate(-155.245 -175.321)">
    <path id="Path_3016" data-name="Path 3016" d="M261.841,316.087v.767c0,.187,0,.374.012.559a35.227,35.227,0,0,0,.365-4.518,13.2,13.2,0,0,0-.376,3.192" transform="translate(-62.55 -80.728)" fill="#f57223"/>
    <path id="Path_3017" data-name="Path 3017" d="M261.841,316.087v.767c0,.187,0,.374.012.559a35.227,35.227,0,0,0,.365-4.518,13.2,13.2,0,0,0-.376,3.192" transform="translate(-62.55 -80.728)" fill="#f57223"/>
    <g id="Group_2506" data-name="Group 2506" transform="translate(155.245 195.109)">
      <path id="Path_3018" data-name="Path 3018" d="M374.789,254.458a12.085,12.085,0,0,0-4.116-9.1,13.337,13.337,0,0,0-17.6-.03l-.035.03-.034.03q-.278.253-.538.517c-.176-.173-.356-.348-.54-.512a12.847,12.847,0,0,0-8.837-3.4,12.977,12.977,0,0,0-8.838,3.366c-.252.226-.494.459-.723.7a21.738,21.738,0,0,0-12.86-4.065h-.734a21.668,21.668,0,0,0-15.692,6.475c-.032.03-.06.06-.09.09V235.651a12.158,12.158,0,0,0-4.076-9.074l-.039-.035-.039-.035a13.34,13.34,0,0,0-17.564,0l-.072.065-.072.067a12.22,12.22,0,0,0-3.975,9.012v8.58a21.521,21.521,0,0,0-6.66-2.026v-6.554a12.164,12.164,0,0,0-4.074-9.074l-.041-.035-.037-.035a13.339,13.339,0,0,0-17.567,0l-.071.064-.072.065a12.218,12.218,0,0,0-3.975,9.012v6.341h-2.454a21.647,21.647,0,0,0-14.767,5.6,21.559,21.559,0,0,0-12.228-5.459,12.139,12.139,0,0,0-2.285-15.618,13.049,13.049,0,0,0-8.8-3.3h-4.27c-8.467,0-15.189,2.334-19.977,6.932s-7.232,11.08-7.232,19.252v10.113c0,.487-.016.893-.042,1.226-.351.028-.776.044-1.292.044H168.2a12.971,12.971,0,0,0-8.832,3.363,12.14,12.14,0,0,0,.035,18.255,13.061,13.061,0,0,0,8.8,3.3h4.275c8.464,0,15.187-2.334,19.976-6.932a21.319,21.319,0,0,0,2.341-2.645,22.12,22.12,0,0,0,18.31,9.577h.734a21.788,21.788,0,0,0,14.764-5.565,21.715,21.715,0,0,0,14.767,5.565h2.615a13.184,13.184,0,0,0,6.378-1.593,13.21,13.21,0,0,0,6.378,1.593,13.012,13.012,0,0,0,8.767-3.3l.037-.032.039-.035c.183-.169.362-.342.536-.517.15.155.3.307.464.454l.069.065.074.062a13.335,13.335,0,0,0,17.633-.06q.416-.377.79-.78a21.607,21.607,0,0,0,13.079,4.141,13.048,13.048,0,0,0,8.449-3,21.907,21.907,0,0,0,11.262,3,13.3,13.3,0,0,0,4.868-.9,13.4,13.4,0,0,0,4.892.9,12.918,12.918,0,0,0,8.834-3.361c.243-.219.476-.448.7-.681a21.366,21.366,0,0,0,3.848,2.211,12.065,12.065,0,0,0-3.179,8.174,12.192,12.192,0,0,0,4.079,9.107l.035.032.039.035a13.06,13.06,0,0,0,8.8,3.3,21.751,21.751,0,0,0,15.678-6.459,20.785,20.785,0,0,0,6.3-15.037ZM199.3,264.785c-.009-.185-.012-.372-.012-.559v-.767a13.2,13.2,0,0,1,.376-3.192,35.221,35.221,0,0,1-.365,4.518" transform="translate(-155.245 -223.209)" fill="#006697"/>
    </g>
    <path id="Path_3019" data-name="Path 3019" d="M308.373,204.17a8.1,8.1,0,0,1-3.3-.674A7.462,7.462,0,0,1,301.5,200a4.835,4.835,0,0,1-1.99.406,6.307,6.307,0,0,1-2.435-.507l-.03-.014a6.056,6.056,0,0,1-3.437-5.058,7.156,7.156,0,0,1-4.644-3.306,6.4,6.4,0,0,1-.312-6.4,7.147,7.147,0,0,1,6.7-4.148,8.9,8.9,0,0,1,1.2.081,6.643,6.643,0,0,1,5.921-3.682,8.076,8.076,0,0,1,2.509.42c2.809.914,3.839,3.811,4.2,5.388a4.917,4.917,0,0,1,1.066-.113,5.971,5.971,0,0,1,2.692.669,5.583,5.583,0,0,1,2.622,5.334c2.475.912,4.093,2.292,4.818,4.109a7.1,7.1,0,0,1-.42,5.6,6.445,6.445,0,0,1-5.963,3.94h0a7.292,7.292,0,0,1-1.472-.155c-.633.979-2.168,1.6-4.151,1.6" transform="translate(-77.866 -1.204)" fill="#006697"/>
    <path id="Path_3020" data-name="Path 3020" d="M301.268,177.016a7.264,7.264,0,0,1,2.246.376c3.361,1.095,3.795,5.7,3.795,5.7a4.016,4.016,0,0,1,1.731-.381,5.1,5.1,0,0,1,2.274.559c2.832,1.646,2.123,5.18,2.123,5.18,8.005,2.532,4.564,8.735,4.564,8.735a5.641,5.641,0,0,1-5.215,3.485,6.075,6.075,0,0,1-2.006-.328c-.018,1.066-1.692,1.778-3.615,1.778a7.314,7.314,0,0,1-2.95-.6,6.745,6.745,0,0,1-3.513-3.947,3.877,3.877,0,0,1-2.4.78,5.415,5.415,0,0,1-2.075-.427,5.248,5.248,0,0,1-2.976-5.145,2.148,2.148,0,0,1-.351.028c-2.507,0-6.962-3.871-4.7-8.518a6.283,6.283,0,0,1,5.939-3.673,7.215,7.215,0,0,1,1.667.18,5.978,5.978,0,0,1,5.457-3.781m0-1.695h0a7.455,7.455,0,0,0-6.366,3.631c-.231-.018-.485-.03-.757-.03a7.929,7.929,0,0,0-7.463,4.623,7.229,7.229,0,0,0,.356,7.218,8.233,8.233,0,0,0,4.6,3.562,6.851,6.851,0,0,0,3.809,5.1l.03.016.03.014a7.111,7.111,0,0,0,2.8.589,5.929,5.929,0,0,0,1.6-.217,8.2,8.2,0,0,0,3.615,3.234,8.935,8.935,0,0,0,3.645.75,6.216,6.216,0,0,0,4.494-1.528,8.315,8.315,0,0,0,1.126.079,7.325,7.325,0,0,0,6.717-4.4,8,8,0,0,0,.455-6.3,8.114,8.114,0,0,0-4.751-4.37,7.933,7.933,0,0,0-.1-1.087,6.016,6.016,0,0,0-2.948-4.4l-.007,0-.01-.007a6.785,6.785,0,0,0-3.107-.778c-.15,0-.3,0-.443.017-.543-1.8-1.782-4.347-4.559-5.252A8.99,8.99,0,0,0,301.268,175.321Z" transform="translate(-76.659)" fill="#4c4c4c"/>
    <path id="Path_3021" data-name="Path 3021" d="M343.733,251.175a3.005,3.005,0,1,1,0-6.011,2.964,2.964,0,0,1,1.233.265,3.005,3.005,0,0,1-1.235,5.746" transform="translate(-108.84 -40.984)" fill="#006697"/>
    <path id="Path_3022" data-name="Path 3022" d="M342.531,244.808a2.112,2.112,0,0,1,.885.192,2.153,2.153,0,1,1-.885-.192m0-1.694h0a3.852,3.852,0,0,0-1.581,7.366,3.807,3.807,0,0,0,1.579.342,3.854,3.854,0,0,0,1.581-7.368,3.812,3.812,0,0,0-1.579-.339" transform="translate(-107.636 -39.781)" fill="#4c4c4c"/>
    <path id="Path_3023" data-name="Path 3023" d="M332.869,262.8a1.441,1.441,0,0,1-.607-.132,1.478,1.478,0,1,1,.607.132" transform="translate(-103.359 -49.592)" fill="#006697"/>
    <path id="Path_3024" data-name="Path 3024" d="M331.665,259.484a.659.659,0,0,1,.261.055.635.635,0,0,1-.261,1.214.65.65,0,0,1-.261-.056.635.635,0,0,1,.261-1.214m0-1.694h0a2.33,2.33,0,1,0,2.177,1.5,2.329,2.329,0,0,0-2.177-1.5" transform="translate(-102.155 -48.392)" fill="#4c4c4c"/>
    <path id="Path_3025" data-name="Path 3025" d="M625.663,285.569l.032,28.55a17.5,17.5,0,0,1-5.376,12.823,18.444,18.444,0,0,1-13.476,5.552,9.975,9.975,0,0,1-6.727-2.514l-.025-.021-.023-.023a9.048,9.048,0,0,1,0-13.557l.021-.021.025-.021a9.918,9.918,0,0,1,5.923-2.484v-.143a18.364,18.364,0,0,1-13.4-5.54,8.827,8.827,0,0,0,.843-3.809V300.8a14.014,14.014,0,0,0,12.622,7.862h.734a13.765,13.765,0,0,0,4.273-.669v6.124h-.032a4.756,4.756,0,0,1-1.4,3.506,3.909,3.909,0,0,1-2.837,1.244,4.912,4.912,0,0,0-3.38,1.244,4,4,0,0,0,0,6.09,4.912,4.912,0,0,0,3.38,1.244,13.5,13.5,0,0,0,9.919-4.081,12.576,12.576,0,0,0,3.889-9.247l-.032-28.545a3.9,3.9,0,0,0-1.4-3.028,4.805,4.805,0,0,0-3.349-1.244,4.922,4.922,0,0,0-3.38,1.244,3.938,3.938,0,0,0-1.371,3.028v9.762h-.032a4.76,4.76,0,0,1-1.4,3.506,3.952,3.952,0,0,1-2.837,1.209h-.734a3.885,3.885,0,0,1-2.839-1.209,4.771,4.771,0,0,1-1.433-3.506v-9.762a3.9,3.9,0,0,0-1.4-3.028,4.738,4.738,0,0,0-3.347-1.274,4.859,4.859,0,0,0-3.384,1.274,3.9,3.9,0,0,0-1.4,3.028v2.417a17.975,17.975,0,0,0-4.155-6.21l-.046-.046a9.24,9.24,0,0,1,2.232-2.943,9.91,9.91,0,0,1,6.754-2.567,9.783,9.783,0,0,1,6.738,2.585,9.009,9.009,0,0,1,2.65,4.044,9.05,9.05,0,0,1,2.625-4.044l.021-.019.021-.021a9.974,9.974,0,0,1,6.727-2.514,9.848,9.848,0,0,1,6.717,2.535,8.87,8.87,0,0,1,3.08,6.777" transform="translate(-253.997 -59.21)" fill="#4c4c4c"/>
    <path id="Path_3026" data-name="Path 3026" d="M626.586,292.737l.032,28.545a12.576,12.576,0,0,1-3.889,9.247,13.5,13.5,0,0,1-9.919,4.081,4.912,4.912,0,0,1-3.38-1.244,4,4,0,0,1,0-6.09,4.912,4.912,0,0,1,3.38-1.244,3.909,3.909,0,0,0,2.837-1.244,4.756,4.756,0,0,0,1.4-3.506h.032v-6.124a13.765,13.765,0,0,1-4.273.669h-.734a14.014,14.014,0,0,1-12.622-7.862v-6.219a17.694,17.694,0,0,0-1.186-6.592v-2.417a3.9,3.9,0,0,1,1.4-3.028,4.861,4.861,0,0,1,3.384-1.276,4.74,4.74,0,0,1,3.347,1.276,3.9,3.9,0,0,1,1.4,3.028V302.5a4.771,4.771,0,0,0,1.433,3.506,3.885,3.885,0,0,0,2.839,1.209h.734a3.952,3.952,0,0,0,2.837-1.209,4.76,4.76,0,0,0,1.4-3.506h.032v-9.762a3.938,3.938,0,0,1,1.371-3.028,4.922,4.922,0,0,1,3.38-1.244,4.805,4.805,0,0,1,3.349,1.244,3.9,3.9,0,0,1,1.4,3.028" transform="translate(-259.964 -66.373)" fill="#fff"/>
    <path id="Path_3027" data-name="Path 3027" d="M592.287,308.627v3.559a8.827,8.827,0,0,1-.843,3.809l-.028-.028a18.2,18.2,0,0,1-4.176-6.286v-7.288a12.454,12.454,0,0,0-1.187-5.515V293.4a8.878,8.878,0,0,1,.845-3.839l.046.046a17.975,17.975,0,0,1,4.155,6.21v7.345a12.58,12.58,0,0,0,1.186,5.466" transform="translate(-252.797 -67.035)" fill="#4c4c4c"/>
    <path id="Path_3028" data-name="Path 3028" d="M599.453,311.292v6.219a12.581,12.581,0,0,1-1.186-5.466V304.7a17.694,17.694,0,0,1,1.186,6.592" transform="translate(-259.964 -75.919)" fill="#fff"/>
    <path id="Path_3029" data-name="Path 3029" d="M555.915,344.544l.028.028a9.306,9.306,0,0,1-2.219,2.955,9.862,9.862,0,0,1-6.736,2.553,10.1,10.1,0,0,1-4.894-1.223,10.025,10.025,0,0,1-4.866,1.223,18.416,18.416,0,0,1-11.676-3.92,8.759,8.759,0,0,0,1.794-5.138,13.486,13.486,0,0,0,9.882,4.014,4.89,4.89,0,0,0,3.349-1.244,3.9,3.9,0,0,0,1.4-3.029h.254a4.008,4.008,0,0,0,1.371,3.029,4.921,4.921,0,0,0,3.382,1.244,4.8,4.8,0,0,0,3.347-1.244,3.971,3.971,0,0,0,1.4-3.029v-2.5a18.2,18.2,0,0,0,4.176,6.286" transform="translate(-217.295 -95.611)" fill="#4c4c4c"/>
    <path id="Path_3030" data-name="Path 3030" d="M548.71,309.023v2.5a3.971,3.971,0,0,1-1.4,3.029,4.8,4.8,0,0,1-3.347,1.244,4.921,4.921,0,0,1-3.382-1.244,4.008,4.008,0,0,1-1.371-3.029v-9.792a4.834,4.834,0,0,0-1.433-3.476,3.916,3.916,0,0,0-2.839-1.244H534.2a3.841,3.841,0,0,0-2.839,1.244,4.671,4.671,0,0,0-1.433,3.476v.767a4.771,4.771,0,0,0,1.433,3.506,3.886,3.886,0,0,0,2.839,1.209,4.832,4.832,0,0,1,3.349,1.276,3.974,3.974,0,0,1,0,6.062A4.89,4.89,0,0,1,534.2,315.8a13.486,13.486,0,0,1-9.882-4.014c0-.088,0-.173,0-.259a9.4,9.4,0,0,0-3.837-7.405,13.8,13.8,0,0,1-.092-1.62v-.767a12.531,12.531,0,0,1,3.889-9.217,13.444,13.444,0,0,1,9.919-4.081h.734a13.51,13.51,0,0,1,9.919,4.081,13.237,13.237,0,0,1,2.671,3.7V302.5a17.82,17.82,0,0,0,1.187,6.521" transform="translate(-214.266 -66.376)" fill="#fff"/>
    <path id="Path_3031" data-name="Path 3031" d="M587.241,312.79v7.288a17.821,17.821,0,0,1-1.187-6.521v-6.281a12.454,12.454,0,0,1,1.187,5.515" transform="translate(-252.797 -77.43)" fill="#fff"/>
    <path id="Path_3032" data-name="Path 3032" d="M541.2,281.735a8.878,8.878,0,0,0-.845,3.839v3.481a13.239,13.239,0,0,0-2.671-3.7,13.512,13.512,0,0,0-9.919-4.083h-.734a13.445,13.445,0,0,0-9.919,4.083,12.531,12.531,0,0,0-3.889,9.217v.767a13.815,13.815,0,0,0,.092,1.62,9.8,9.8,0,0,0-5.138-1.911v-.476a17.465,17.465,0,0,1,5.369-12.786,18.381,18.381,0,0,1,13.485-5.559h.734a18.438,18.438,0,0,1,13.435,5.51" transform="translate(-207.1 -59.21)" fill="#4c4c4c"/>
    <path id="Path_3033" data-name="Path 3033" d="M552.748,313.917v9.792h-.254a3.908,3.908,0,0,0-1.4-3.033,4.832,4.832,0,0,0-3.349-1.276,3.885,3.885,0,0,1-2.839-1.209,4.771,4.771,0,0,1-1.433-3.506v-.767a4.671,4.671,0,0,1,1.433-3.476,3.841,3.841,0,0,1,2.839-1.244h.734a3.916,3.916,0,0,1,2.839,1.244,4.834,4.834,0,0,1,1.433,3.476" transform="translate(-227.808 -78.558)" fill="#4c4c4c"/>
    <path id="Path_3034" data-name="Path 3034" d="M524.451,333.8c0,.086,0,.171,0,.259l-.037-.037a12.64,12.64,0,0,1-3.8-7.627,9.4,9.4,0,0,1,3.837,7.405" transform="translate(-214.397 -88.651)" fill="#fff"/>
    <path id="Path_3035" data-name="Path 3035" d="M517.115,331.31l.037.037a8.759,8.759,0,0,1-1.794,5.138,20.371,20.371,0,0,1-3.629-3.691,3.838,3.838,0,0,0,.381-1.708,3.908,3.908,0,0,0-1.4-3.031,4.816,4.816,0,0,0-1.87-1.062,18.17,18.17,0,0,1-.658-4.931v-.291a9.8,9.8,0,0,1,5.138,1.911,12.64,12.64,0,0,0,3.8,7.627" transform="translate(-207.1 -85.937)" fill="#4c4c4c"/>
    <path id="Path_3036" data-name="Path 3036" d="M494.742,343.163a9.829,9.829,0,0,1-1.307,1.406,9.985,9.985,0,0,1-6.729,2.514,18.257,18.257,0,0,1-13.661-5.7,8.838,8.838,0,0,0,.752-3.615v-4.614a13.571,13.571,0,0,0,2.546,4.356,13.1,13.1,0,0,0,10.362,4.531,4.933,4.933,0,0,0,3.384-1.244,4.2,4.2,0,0,0,1.023-1.323,20.371,20.371,0,0,0,3.629,3.691" transform="translate(-186.484 -92.615)" fill="#4c4c4c"/>
    <path id="Path_3037" data-name="Path 3037" d="M511.641,335.471a3.908,3.908,0,0,1,1.4,3.031,3.867,3.867,0,0,1-.381,1.708,17.258,17.258,0,0,1-2.892-5.8,4.816,4.816,0,0,1,1.87,1.062" transform="translate(-208.034 -93.352)" fill="#fff"/>
    <path id="Path_3038" data-name="Path 3038" d="M491,286.559a4.2,4.2,0,0,1-1.023,1.323,4.932,4.932,0,0,1-3.384,1.244,13.1,13.1,0,0,1-10.362-4.531,13.571,13.571,0,0,1-2.546-4.356v-.134h.035v-5.044a18.055,18.055,0,0,0-.868-5.63V247.253a4,4,0,0,1,1.371-3.028,5.171,5.171,0,0,1,6.729,0,3.96,3.96,0,0,1,1.4,3.028v27.777a6.249,6.249,0,0,0,1.371,4.273,3.571,3.571,0,0,0,2.867,1.277v-.035a5.261,5.261,0,0,1,1.514.215,17.258,17.258,0,0,0,2.892,5.8" transform="translate(-186.369 -39.702)" fill="#fff"/>
    <path id="Path_3039" data-name="Path 3039" d="M480.285,268.662a18.17,18.17,0,0,0,.658,4.931,5.261,5.261,0,0,0-1.514-.215v.035a3.571,3.571,0,0,1-2.867-1.277,6.249,6.249,0,0,1-1.371-4.273V240.086a3.96,3.96,0,0,0-1.4-3.028,5.171,5.171,0,0,0-6.729,0,4,4,0,0,0-1.371,3.028v22.179a17.91,17.91,0,0,0-4.508-7.163c-.176-.175-.358-.348-.535-.514v-14.5a9,9,0,0,1,2.978-6.724l.046-.039.044-.042a10.214,10.214,0,0,1,13.421,0l.023.021.028.021a8.967,8.967,0,0,1,3.052,6.763v27.777a4.253,4.253,0,0,0,.028.505l.023,0Z" transform="translate(-179.206 -32.535)" fill="#4c4c4c"/>
    <path id="Path_3040" data-name="Path 3040" d="M473.717,312.625v5.044h-.035v.134a15.226,15.226,0,0,1-.833-5.21v-5.6a18.055,18.055,0,0,1,.868,5.63" transform="translate(-186.369 -77.266)" fill="#fff"/>
    <path id="Path_3041" data-name="Path 3041" d="M466.52,306.9v4.614a8.837,8.837,0,0,1-.752,3.615c-.169-.18-.337-.367-.5-.554l-.009-.012-.009-.009a18.511,18.511,0,0,1-3.772-6.842v-5.99h.033a12.7,12.7,0,0,0-.866-4.723v-8.585c.178.166.36.339.535.514a17.91,17.91,0,0,1,4.508,7.163v5.6a15.226,15.226,0,0,0,.833,5.21" transform="translate(-179.206 -66.363)" fill="#4c4c4c"/>
    <path id="Path_3042" data-name="Path 3042" d="M423.968,326.771c.164.187.333.374.5.554a9.289,9.289,0,0,1-2.306,3.149,9.855,9.855,0,0,1-6.738,2.553,9.984,9.984,0,0,1-6.727-2.514l-.044-.039-.044-.042a9.2,9.2,0,0,1-2.578-4.021,9.2,9.2,0,0,1-2.65,4.061l-.021.021-.023.021a10.222,10.222,0,0,1-13.075.293c.118-.095.233-.194.349-.293a9.081,9.081,0,0,0,2.606-3.818l.044.044a5.173,5.173,0,0,0,6.729,0,3.97,3.97,0,0,0,1.4-3.029v-9.792a4.668,4.668,0,0,1,1.438-3.476,3.841,3.841,0,0,1,2.837-1.244h.734a3.917,3.917,0,0,1,2.84,1.244,4.732,4.732,0,0,1,1.4,3.476h.033v9.792a4.009,4.009,0,0,0,1.371,3.029,4.921,4.921,0,0,0,3.38,1.244,4.8,4.8,0,0,0,3.349-1.244,3.964,3.964,0,0,0,1.4-3.029v-3.8a18.511,18.511,0,0,0,3.772,6.842l.009.009Z" transform="translate(-137.908 -78.558)" fill="#4c4c4c"/>
    <path id="Path_3043" data-name="Path 3043" d="M461.508,313.914h-.033v5.99a20.379,20.379,0,0,1-.833-6.034v-4.679a12.7,12.7,0,0,1,.866,4.723" transform="translate(-179.206 -78.554)" fill="#4c4c4c"/>
    <path id="Path_3044" data-name="Path 3044" d="M422.489,281.052v3.8a3.965,3.965,0,0,1-1.4,3.031,4.8,4.8,0,0,1-3.349,1.244,4.921,4.921,0,0,1-3.38-1.244,4.01,4.01,0,0,1-1.371-3.031v-9.79h-.033a4.732,4.732,0,0,0-1.4-3.476,3.917,3.917,0,0,0-2.84-1.244h-.734a3.841,3.841,0,0,0-2.837,1.244,4.668,4.668,0,0,0-1.438,3.476v9.79a3.971,3.971,0,0,1-1.4,3.031,5.172,5.172,0,0,1-6.729,0l-.044-.044a8.958,8.958,0,0,0,.5-2.987,8.789,8.789,0,0,0-1.824-5.439v-7.92a9.027,9.027,0,0,0,0-10.881V247.253a3.989,3.989,0,0,1,1.371-3.028,5.171,5.171,0,0,1,6.729,0,3.958,3.958,0,0,1,1.4,3.028V262.4a14.473,14.473,0,0,1,4.275-.639h.734a13.511,13.511,0,0,1,9.917,4.083,13.056,13.056,0,0,1,3.026,4.494v4.679a20.377,20.377,0,0,0,.833,6.034" transform="translate(-140.219 -39.702)" fill="#fff"/>
    <path id="Path_3045" data-name="Path 3045" d="M414.49,254.587v8.585a13.055,13.055,0,0,0-3.026-4.494,13.509,13.509,0,0,0-9.917-4.081h-.734a14.47,14.47,0,0,0-4.275.637V240.086a3.958,3.958,0,0,0-1.4-3.028,5.171,5.171,0,0,0-6.729,0,3.989,3.989,0,0,0-1.371,3.028v13.359a9.5,9.5,0,0,0-1.23-1.337l-.023-.023-.025-.021a9.858,9.858,0,0,0-3.767-2.1v-9.882a9,9,0,0,1,2.982-6.724l.044-.039.044-.042a10.216,10.216,0,0,1,13.423,0l.023.021.023.021a8.96,8.96,0,0,1,3.054,6.763v9.464a18.4,18.4,0,0,1,12.906,5.037" transform="translate(-133.054 -32.535)" fill="#4c4c4c"/>
    <path id="Path_3046" data-name="Path 3046" d="M394.2,285.65a9.027,9.027,0,0,1,0,10.881Z" transform="translate(-140.219 -64.741)" fill="#fff"/>
    <path id="Path_3047" data-name="Path 3047" d="M394.2,331.152a8.791,8.791,0,0,1,1.824,5.441,8.955,8.955,0,0,1-.5,2.985,3.976,3.976,0,0,1-1.328-2.985Z" transform="translate(-140.219 -91.441)" fill="#fff"/>
    <path id="Path_3048" data-name="Path 3048" d="M388.364,334.621a9.081,9.081,0,0,1-2.606,3.818c-.116.1-.231.2-.349.293-.118-.095-.233-.194-.348-.293l-.044-.039-.044-.042a9.233,9.233,0,0,1-2.493-3.756,3.972,3.972,0,0,0-.069-6,4.839,4.839,0,0,0-.42-.341V322.7a10.21,10.21,0,0,1,5.046,3.49v5.441a3.976,3.976,0,0,0,1.328,2.985" transform="translate(-133.054 -86.484)" fill="#4c4c4c"/>
    <path id="Path_3049" data-name="Path 3049" d="M387.037,311.984v7.92a10.21,10.21,0,0,0-5.046-3.49v-.956a9.826,9.826,0,0,0,3.767-2.1l.025-.021.023-.018a9.677,9.677,0,0,0,1.23-1.339" transform="translate(-133.054 -80.193)" fill="#4c4c4c"/>
    <path id="Path_3050" data-name="Path 3050" d="M387.037,280.713v10.881a9.675,9.675,0,0,1-1.23,1.339l-.023.018-.025.021a9.826,9.826,0,0,1-3.767,2.1v-5.536a4.729,4.729,0,0,0,.42-.332,4.007,4.007,0,0,0,0-6.092,5.354,5.354,0,0,0-.42-.335v-5.538a9.858,9.858,0,0,1,3.767,2.1l.025.021.023.023a9.5,9.5,0,0,1,1.23,1.337" transform="translate(-133.054 -59.803)" fill="#4c4c4c"/>
    <path id="Path_3051" data-name="Path 3051" d="M356.177,347.841c.115.1.231.2.348.293a9.982,9.982,0,0,1-6.378,2.221h-2.615a18.429,18.429,0,0,1-13.483-5.526c-.457-.457-.882-.924-1.281-1.4a17.665,17.665,0,0,0,2.823-4.7,14.1,14.1,0,0,0,2.025,2.532,13.481,13.481,0,0,0,9.916,4.051h2.615a4.912,4.912,0,0,0,3.38-1.244L353.6,344a9.233,9.233,0,0,0,2.493,3.756l.044.042Z" transform="translate(-104.17 -95.886)" fill="#4c4c4c"/>
    <path id="Path_3052" data-name="Path 3052" d="M383.814,339.527a3.887,3.887,0,0,1-1.334,2.966,9.068,9.068,0,0,1-.489-2.966v-3.375a4.845,4.845,0,0,1,.42.341,3.908,3.908,0,0,1,1.4,3.033" transform="translate(-133.054 -94.375)" fill="#4c4c4c"/>
    <path id="Path_3053" data-name="Path 3053" d="M382.411,290.973a4.007,4.007,0,0,1,0,6.092,4.729,4.729,0,0,1-.42.332v-6.759a5.354,5.354,0,0,1,.42.335" transform="translate(-133.054 -67.668)" fill="#4c4c4c"/>
    <path id="Path_3054" data-name="Path 3054" d="M357.605,314.494l-.069.062a4.912,4.912,0,0,1-3.38,1.244h-2.615a13.481,13.481,0,0,1-9.917-4.051,14.1,14.1,0,0,1-2.025-2.532,17.783,17.783,0,0,0,1.263-6.715v-.767a17.694,17.694,0,0,0-1.26-6.7,13.732,13.732,0,0,1,2.022-2.514,13.438,13.438,0,0,1,9.917-4.081h2.615a4.942,4.942,0,0,1,2.96.909v6.759a4.94,4.94,0,0,1-2.96.91h-2.615a3.838,3.838,0,0,0-2.837,1.244,4.675,4.675,0,0,0-1.435,3.476v.767a4.775,4.775,0,0,0,1.435,3.506,3.882,3.882,0,0,0,2.837,1.209h2.615a4.869,4.869,0,0,1,2.96.935v3.375a9.068,9.068,0,0,0,.489,2.966" transform="translate(-108.179 -66.376)" fill="#fff"/>
    <path id="Path_3055" data-name="Path 3055" d="M368.006,313.486v5.556a4.868,4.868,0,0,0-2.96-.935h-2.615a3.882,3.882,0,0,1-2.837-1.209,4.775,4.775,0,0,1-1.435-3.506v-.767a4.675,4.675,0,0,1,1.435-3.476,3.838,3.838,0,0,1,2.837-1.244h2.615a4.94,4.94,0,0,0,2.96-.91v5.536a10.452,10.452,0,0,1-2.96.418H363.2v.115h1.844a10.416,10.416,0,0,1,2.96.423" transform="translate(-119.069 -77.266)" fill="#4c4c4c"/>
    <path id="Path_3056" data-name="Path 3056" d="M353.107,276.643v5.538a4.942,4.942,0,0,0-2.96-.909h-2.615a13.438,13.438,0,0,0-9.916,4.081,13.731,13.731,0,0,0-2.022,2.514,17.633,17.633,0,0,0-2.826-4.686c.395-.478.824-.942,1.281-1.4a18.376,18.376,0,0,1,13.483-5.559h2.615a10.519,10.519,0,0,1,2.96.418" transform="translate(-104.17 -59.21)" fill="#4c4c4c"/>
    <path id="Path_3057" data-name="Path 3057" d="M338.211,311.1v.767a17.783,17.783,0,0,1-1.263,6.715,12.474,12.474,0,0,1-1.867-6.715V311.1a12.387,12.387,0,0,1,1.87-6.7,17.7,17.7,0,0,1,1.26,6.7" transform="translate(-105.527 -75.742)" fill="#fff"/>
    <path id="Path_3058" data-name="Path 3058" d="M328.752,293.057a17.568,17.568,0,0,1,2.826,4.686,12.387,12.387,0,0,0-1.87,6.7v.767a12.474,12.474,0,0,0,1.867,6.715,17.665,17.665,0,0,1-2.823,4.7,17.771,17.771,0,0,1-2.825-4.7,12.489,12.489,0,0,0,1.867-6.717v-.767a12.4,12.4,0,0,0-1.87-6.708,17.582,17.582,0,0,1,2.828-4.682" transform="translate(-100.154 -69.087)" fill="#4c4c4c"/>
    <path id="Path_3059" data-name="Path 3059" d="M284.982,306.749c-.4.48-.824.946-1.279,1.4l-.009,0-.007.007a18.5,18.5,0,0,1-13.472,5.515h-.734A18.438,18.438,0,0,1,256,308.152a17.884,17.884,0,0,1-4.663-7.724,28.044,28.044,0,0,0,1.6-9.813v-4.894A19.024,19.024,0,0,1,256,281.786a18.375,18.375,0,0,1,13.486-5.561h.734a18.442,18.442,0,0,1,13.479,5.554c.459.455.886.924,1.288,1.4a17.582,17.582,0,0,0-2.828,4.682,13.781,13.781,0,0,0-2.02-2.509,13.512,13.512,0,0,0-9.919-4.083h-.734a13.438,13.438,0,0,0-9.917,4.083,12.522,12.522,0,0,0-3.889,9.217v.767a12.628,12.628,0,0,0,3.889,9.247,13.479,13.479,0,0,0,9.917,4.051h.734a13.554,13.554,0,0,0,9.919-4.051,14.016,14.016,0,0,0,2.022-2.53,17.77,17.77,0,0,0,2.825,4.7" transform="translate(-56.384 -59.21)" fill="#4c4c4c"/>
    <path id="Path_3060" data-name="Path 3060" d="M326,311.095v.767a12.489,12.489,0,0,1-1.867,6.717,17.8,17.8,0,0,1-1.263-6.717v-.767a17.765,17.765,0,0,1,1.26-6.708,12.4,12.4,0,0,1,1.87,6.708" transform="translate(-98.364 -75.735)" fill="#fff"/>
    <path id="Path_3061" data-name="Path 3061" d="M288.32,295.028a17.765,17.765,0,0,0-1.26,6.708v.767a17.8,17.8,0,0,0,1.263,6.717,14.014,14.014,0,0,1-2.022,2.53,13.554,13.554,0,0,1-9.919,4.051h-.734a13.479,13.479,0,0,1-9.917-4.051,12.629,12.629,0,0,1-3.889-9.247v-.767a12.522,12.522,0,0,1,3.889-9.217,13.436,13.436,0,0,1,9.917-4.081h.734a13.51,13.51,0,0,1,9.919,4.081,13.782,13.782,0,0,1,2.02,2.509m-7.7,7.474v-.767a4.725,4.725,0,0,0-1.4-3.476,3.909,3.909,0,0,0-2.839-1.244h-.734a3.846,3.846,0,0,0-2.84,1.244,4.672,4.672,0,0,0-1.434,3.476v.767a4.772,4.772,0,0,0,1.434,3.506,3.89,3.89,0,0,0,2.84,1.209h.734a3.954,3.954,0,0,0,2.839-1.209,4.827,4.827,0,0,0,1.4-3.506" transform="translate(-62.55 -66.376)" fill="#fff"/>
    <path id="Path_3062" data-name="Path 3062" d="M294.163,313.917v.767a4.827,4.827,0,0,1-1.4,3.506,3.954,3.954,0,0,1-2.839,1.209h-.734a3.89,3.89,0,0,1-2.84-1.209,4.772,4.772,0,0,1-1.434-3.506v-.767a4.672,4.672,0,0,1,1.434-3.476,3.846,3.846,0,0,1,2.84-1.244h.734a3.909,3.909,0,0,1,2.839,1.244,4.725,4.725,0,0,1,1.4,3.476" transform="translate(-76.089 -78.558)" fill="#fff"/>
    <path id="Path_3063" data-name="Path 3063" d="M219.547,240.086a8.982,8.982,0,0,1-3.054,6.793l-.023.021-.025.023a9.99,9.99,0,0,1-6.727,2.511h-4.27a9.406,9.406,0,0,0-3.878.528c-.127.222-.584,1.2-.584,3.869v5.215a17.4,17.4,0,0,0-2.306,8.848v.767a18.167,18.167,0,0,0,.7,5.092,19.045,19.045,0,0,1-4.668,7.186c-4.185,4.024-10.18,6.064-17.811,6.064H172.63a9.983,9.983,0,0,1-6.724-2.511,9.016,9.016,0,0,1-.023-13.592,9.9,9.9,0,0,1,6.748-2.567h4.275a9.578,9.578,0,0,0,3.892-.529,8.754,8.754,0,0,0,.566-3.864V253.832c0-7.292,2.11-13.012,6.272-17,4.185-4.024,10.18-6.065,17.814-6.065h4.27a9.991,9.991,0,0,1,6.729,2.514,8.883,8.883,0,0,1,3.1,6.805m-5.044,0a3.9,3.9,0,0,0-1.4-3.028,4.921,4.921,0,0,0-3.382-1.244h-4.27q-9.474,0-14.321,4.654-4.719,4.533-4.718,13.366v10.108q0,5.485-2.106,7.525-2.011,1.915-7.4,1.911H172.63a4.861,4.861,0,0,0-3.38,1.276,3.974,3.974,0,0,0,0,6.062,4.92,4.92,0,0,0,3.38,1.244h4.275q9.47,0,14.319-4.658,4.716-4.525,4.718-13.361V253.832q0-5.488,2.137-7.527,1.977-1.911,7.368-1.914h4.27a4.921,4.921,0,0,0,3.382-1.244,4,4,0,0,0,1.4-3.061" transform="translate(-4.435 -32.535)" fill="#4c4c4c"/>
    <path id="Path_3064" data-name="Path 3064" d="M220.266,244.224a3.9,3.9,0,0,1,1.4,3.028,4,4,0,0,1-1.4,3.061,4.932,4.932,0,0,1-3.384,1.244h-4.27q-5.392,0-7.368,1.914-2.136,2.039-2.138,7.527v10.108q0,8.837-4.718,13.361-4.851,4.661-14.319,4.658h-4.275a4.92,4.92,0,0,1-3.38-1.244,3.974,3.974,0,0,1,0-6.062,4.861,4.861,0,0,1,3.38-1.276h4.275q5.387,0,7.4-1.911,2.105-2.039,2.106-7.525V261q0-8.837,4.718-13.366,4.847-4.654,14.321-4.654h4.27a4.932,4.932,0,0,1,3.384,1.244" transform="translate(-11.598 -39.702)" fill="#fff"/>
    <path id="Path_3065" data-name="Path 3065" d="M251.935,299.208V304.1a28.044,28.044,0,0,1-1.6,9.813,18.167,18.167,0,0,1-.7-5.092v-.767a17.4,17.4,0,0,1,2.306-8.848" transform="translate(-55.384 -72.696)" fill="#4c4c4c"/>
    <path id="Path_3066" data-name="Path 3066" d="M272.686,299.038c1.86,0,3.368,1.948,3.368,4.351s-1.507,4.349-3.368,4.349-3.371-1.946-3.371-4.349,1.507-4.351,3.371-4.351m0-2.634a5.674,5.674,0,0,0-4.467,2.295,7.911,7.911,0,0,0,0,9.379,5.492,5.492,0,0,0,8.933,0,7.92,7.92,0,0,0,0-9.379,5.673,5.673,0,0,0-4.466-2.295" transform="translate(-65.389 -71.051)" fill="#4c4c4c"/>
    <path id="Path_3067" data-name="Path 3067" d="M280.932,308.088a1.7,1.7,0,0,0,0-3.388,1.7,1.7,0,0,0,0,3.388" transform="translate(-72.792 -75.919)" fill="#4c4c4c"/>
    <path id="Path_3068" data-name="Path 3068" d="M302.671,299.038c1.861,0,3.37,1.948,3.37,4.351s-1.509,4.349-3.37,4.349-3.37-1.946-3.37-4.349,1.51-4.351,3.37-4.351m0-2.634A5.673,5.673,0,0,0,298.2,298.7a7.92,7.92,0,0,0,0,9.379,5.492,5.492,0,0,0,8.933,0,7.92,7.92,0,0,0,0-9.379,5.673,5.673,0,0,0-4.467-2.295" transform="translate(-82.986 -71.051)" fill="#4c4c4c"/>
    <path id="Path_3069" data-name="Path 3069" d="M310.919,308.088a1.7,1.7,0,0,0,0-3.388,1.7,1.7,0,0,0,0,3.388" transform="translate(-90.389 -75.919)" fill="#4c4c4c"/>
  </g>
</svg>
